<svg width="38" height="24" viewBox="0 0 38 24" fill="none" xmlns="http://www.w3.org/2000/svg">
<path d="M15.7652 13.9554L37.0549 13.9554L37.0549 9.79883L15.7652 9.79883L15.7652 11.0978L-2.27114e-07 11.0978L-4.9965e-07 12.6565L15.7652 12.6565L15.7652 13.9554Z" fill="#FDFBF9"/>
<path d="M15.7652 23.6725L37.0549 23.6725L37.0549 19.5159L15.7652 19.5159L15.7652 20.8148L-2.27114e-07 20.8148L-4.9965e-07 22.3735L15.7652 22.3735L15.7652 23.6725Z" fill="#FDFBF9"/>
<path d="M15.7652 4.15685L37.0549 4.15685L37.0549 0.00025062L15.7652 0.000246897L15.7652 1.29919L-2.27114e-07 1.29918L-4.9965e-07 2.85791L15.7652 2.85791L15.7652 4.15685Z" fill="#FDFBF9"/>
</svg>
